<?xml version="1.0" encoding="iso-8859-1"?>
<!-- Generator: Adobe Illustrator 22.0.1, SVG Export Plug-In . SVG Version: 6.00 Build 0)  -->
<svg version="1.1" id="Capa_1" xmlns="http://www.w3.org/2000/svg" xmlns:xlink="http://www.w3.org/1999/xlink" x="0px" y="0px"
	 viewBox="0 0 80.148 19.452" style="enable-background:new 0 0 80.148 19.452;" xml:space="preserve">
<path d="M0,0.442V19.01h12.299v-2.08H2.47V0.442H0z"/>
<path d="M26.621,0.572c-2.054,0-3.562,0.676-4.602,2.054c-1.014,1.352-1.534,3.797-1.534,7.333c0,3.511,0.52,5.955,1.534,7.307
	c1.014,1.378,2.548,2.055,4.602,2.055c2.054,0,3.588-0.702,4.602-2.028c1.04-1.352,1.534-3.771,1.534-7.333
	c0-3.563-0.52-6.033-1.534-7.36C30.184,1.248,28.675,0.572,26.621,0.572z M22.825,9.934c0-2.938,0.338-4.915,0.988-5.903
	c0.676-1.014,1.612-1.508,2.782-1.508c1.3,0,2.158,0.572,2.73,1.404c1.118,1.638,1.092,4.369,1.092,6.085
	c0,2.549-0.26,4.395-0.858,5.591c-0.598,1.196-1.586,1.768-2.938,1.768c-1.248,0-2.184-0.52-2.834-1.534
	C23.163,14.797,22.825,12.847,22.825,9.934z"/>
<path d="M41.491,0.572c-4.446,0-6.787,3.511-6.787,9.856c0,5.981,2.184,8.894,6.344,8.894c1.95,0,3.458-0.598,4.55-1.768
	c1.066-1.196,1.612-2.679,1.612-4.447c0-3.485-2.314-5.955-5.642-5.955c-2.106,0-3.588,0.806-4.602,2.418l-0.052-0.052
	c0.104-4.603,1.638-6.995,4.472-6.995c1.69,0,2.86,0.988,3.094,2.757h2.21C46.405,2.289,44.533,0.572,41.491,0.572z M37.331,13.263
	c0-2.445,1.508-4.161,3.796-4.161c2.314,0,3.744,1.638,3.744,4.187c0,2.341-1.534,4.083-3.718,4.083
	C38.839,17.372,37.331,15.655,37.331,13.263z"/>
<path d="M55.269,0l-7.696,19.452h1.898L57.167,0H55.269z"/>
<path d="M64.134,0.572c-0.442,2.366-2.132,3.459-5.226,3.459h-0.078v1.768h4.784V19.01h2.21V0.572H64.134z"/>
<path d="M78.457,0.572c-0.442,2.366-2.132,3.459-5.226,3.459h-0.078v1.768h4.784V19.01h2.21V0.572H78.457z"/>
</svg>
