<?xml version="1.0" encoding="iso-8859-1"?>
<!-- Generator: Adobe Illustrator 22.0.1, SVG Export Plug-In . SVG Version: 6.00 Build 0)  -->
<svg version="1.1" id="Capa_1" xmlns="http://www.w3.org/2000/svg" xmlns:xlink="http://www.w3.org/1999/xlink" x="0px" y="0px"
	 viewBox="0 0 455.988 60.007" style="enable-background:new 0 0 455.988 60.007;" xml:space="preserve">
<path style="fill:#FFFFFF;" d="M51.645,1.371h11.959v0.548c-3.348,0.069-5.055,2.058-6.764,7.544L43.656,50.062h-0.273
	L31.632,16.458L20.701,50.062h-0.273L6.149,9.051C5.192,6.24,4.305,4.319,3.553,3.36C2.733,2.468,1.571,1.988,0,1.919V1.371h14.897
	v0.548c-3.621,0.207-4.308,1.167-4.308,3.635c0,1.098,0.273,2.468,0.82,4.115l9.773,31.615l9.698-26.882l-2.118-6.105
	c-0.888-2.537-1.777-4.183-2.528-5.074c-0.82-0.823-2.186-1.235-4.03-1.304V1.371h14.76v0.548c-3.211,0.138-3.898,1.235-3.898,3.361
	c0,0.755,0.137,1.646,0.479,2.537l10.593,33.261L55.338,9.669c0.546-1.646,0.82-3.016,0.82-4.046c0-2.537-0.687-3.635-4.513-3.704
	V1.371z"/>
<path style="fill:#FFFFFF;" d="M379.254,1.028h11.959v0.549c-3.347,0.069-5.055,2.058-6.763,7.544L371.265,49.72h-0.273
	l-11.751-33.605L348.31,49.72h-0.273L333.758,8.709c-0.956-2.811-1.844-4.732-2.596-5.691c-0.819-0.892-1.981-1.372-3.553-1.441
	V1.028h14.897v0.549c-3.621,0.207-4.308,1.167-4.308,3.635c0,1.097,0.273,2.468,0.82,4.115l9.773,31.615l9.698-26.883l-2.118-6.105
	c-0.888-2.537-1.777-4.183-2.528-5.075c-0.82-0.822-2.186-1.234-4.03-1.303V1.028h14.76v0.549c-3.211,0.138-3.898,1.235-3.898,3.361
	c0,0.755,0.137,1.645,0.478,2.537l10.593,33.261l11.201-31.409c0.546-1.646,0.82-3.018,0.82-4.046c0-2.537-0.687-3.635-4.513-3.704
	V1.028z"/>
<path style="fill:#FFFFFF;" d="M85.539,50.748c-6.627,0-12.092-2.4-16.397-7.201c-4.372-4.801-6.559-10.836-6.559-18.174
	c0-7.339,2.186-13.374,6.559-18.173C73.447,2.4,78.912,0,85.539,0c6.626,0,12.092,2.4,16.465,7.201
	c4.304,4.8,6.49,10.835,6.49,18.173c0,7.338-2.186,13.373-6.49,18.174C97.632,48.349,92.166,50.748,85.539,50.748z M85.539,49.445
	c5.67,0,10.043-2.057,13.117-6.24c3.006-4.114,4.509-10.081,4.509-17.83c0-15.911-5.944-24.071-17.626-24.071
	c-11.682,0-17.627,8.161-17.627,24.071c0,7.749,1.503,13.716,4.577,17.83C75.496,47.387,79.869,49.445,85.539,49.445z"/>
<path style="fill:#FFFFFF;" d="M139.173,50.062L121.137,5.486l-1.845,35.524c-0.205,3.223,0.274,5.28,1.298,6.242
	c1.025,0.959,2.259,1.508,5.47,1.577v0.549h-12.92v-0.549c3.894-0.206,4.445-1.715,4.786-7.75l1.708-31.82
	c0.205-3.223-0.068-5.213-0.683-6.035c-0.615-0.755-3.003-1.235-5.394-1.304V1.371h10.859l16.397,40.805l16.328-40.805h9.974v0.548
	c-2.391,0.069-3.894,0.549-4.509,1.304c-0.615,0.755-0.888,2.743-0.683,5.897l1.708,32.919c0.273,5.28,0.413,6.584,4.718,6.79v0.549
	h-13.876v-0.549c4.441-0.206,4.581-1.509,4.376-6.79l-1.571-36.964L139.31,50.062H139.173z"/>
<path style="fill:#FFFFFF;" d="M253.61,1.371h13.671v0.548c-4.919,0.207-5.811,2.194-5.811,7.613v40.53h-0.205l-31.7-42.519v32.918
	c0,6.31,1.029,8.162,6.494,8.367v0.549h-13.671v-0.549c4.919-0.206,5.811-2.263,5.811-8.367V5.691
	c-1.913-2.468-3.621-3.704-6.695-3.772V1.371h9.632l28.967,38.61V9.532c0-5.555-1.028-7.406-6.494-7.613V1.371z"/>
<path style="fill:#FFFFFF;" d="M390.475,49.171c-1.294-1.303-1.294-3.497,0-4.868c1.294-1.304,3.61-1.304,4.904,0
	c1.294,1.371,1.294,3.566,0,4.868C394.085,50.543,391.768,50.543,390.475,49.171z"/>
<path style="fill:#FFFFFF;" d="M403.376,49.377v-0.686c3.69-0.206,5.196-0.617,6.289-1.234c1.094-0.618,1.64-1.852,1.64-3.841
	V20.573c0-2.812-0.82-3.909-3.006-3.909c-1.162,0-3.007,0.481-5.397,1.44l-0.137-0.548L415.404,12v31.616
	c0,1.92,0.547,3.155,1.64,3.771c1.093,0.618,3.484,1.098,7.173,1.304v0.686H403.376z"/>
<path style="fill:#FFFFFF;" d="M451.751,17.624c2.801,3.772,4.236,8.779,4.236,15.019c0,7.75-2.187,14.264-6.491,19.545
	c-4.303,5.212-9.974,7.818-17.01,7.818c-2.528,0-3.83-0.343-5.606-0.96l0.478-1.097c1.571,0.618,2.736,0.96,5.196,0.96
	c10.999,0,18.104-7.887,18.651-25.099c-2.187,4.594-6.49,7.2-11.751,7.2c-8.471,0-14.21-5.28-14.21-13.852
	c0-4.321,1.435-7.887,4.304-10.836c2.868-2.88,6.49-4.321,10.862-4.321C445.124,12,448.882,13.852,451.751,17.624z M451.205,32.3
	v-0.48c0-13.099-3.552-18.997-10.727-18.997c-6.763,0-11.337,5.212-11.337,13.785c0,8.161,5.052,13.236,11.405,13.236
	C445.193,39.844,449.36,36.895,451.205,32.3z"/>
<path style="fill:#FFFFFF;" d="M326.646,42.788c0.891,2.547,1.783,4.13,2.537,4.818c0.754,0.758,1.92,1.17,3.634,1.308v0.551
	h-14.338v-0.551c4.868-0.207,4.601-1.445,2.887-6.471l-3.771-10.806h-18.993l-3.497,9.912c-2.057,5.988-0.953,7.158,3.915,7.364
	v0.551h-13.515v-0.551c4.182-0.482,5.828-1.927,7.68-7.089l14.537-40.541h4.045L326.646,42.788z M299.081,30.261h18.033
	l-8.982-25.88L299.081,30.261z"/>
<path style="fill:#FFFFFF;" d="M212.683,42.788c0.891,2.547,1.783,4.13,2.537,4.818c0.754,0.758,1.92,1.17,3.634,1.308v0.551
	h-14.338v-0.551c4.868-0.207,4.601-1.445,2.887-6.471l-3.771-10.806h-18.993l-3.497,9.912c-2.057,5.988-0.953,7.158,3.916,7.364
	v0.551h-13.515v-0.551c4.182-0.482,5.828-1.927,7.679-7.089l14.537-40.541h4.045L212.683,42.788z M185.119,30.261h18.033
	l-8.982-25.88L185.119,30.261z"/>
</svg>
