<?xml version="1.0" encoding="iso-8859-1"?>
<!-- Generator: Adobe Illustrator 22.0.1, SVG Export Plug-In . SVG Version: 6.00 Build 0)  -->
<svg version="1.1" id="Capa_1" xmlns="http://www.w3.org/2000/svg" xmlns:xlink="http://www.w3.org/1999/xlink" x="0px" y="0px"
	 viewBox="0 0 80.146 19.423" style="enable-background:new 0 0 80.146 19.423;" xml:space="preserve">
<path d="M0,0.441v18.54h12.299v-2.077H2.47V0.441H0z"/>
<path d="M26.621,0.571c-2.054,0-3.562,0.675-4.602,2.051c-1.014,1.35-1.534,3.791-1.534,7.323c0,3.505,0.52,5.946,1.534,7.297
	c1.014,1.376,2.548,2.051,4.602,2.051c2.054,0,3.588-0.701,4.602-2.025c1.04-1.35,1.534-3.765,1.534-7.323
	c0-3.557-0.52-6.024-1.534-7.349C30.183,1.246,28.675,0.571,26.621,0.571z M22.824,9.919c0-2.934,0.338-4.908,0.988-5.894
	c0.676-1.013,1.612-1.506,2.782-1.506c1.3,0,2.158,0.571,2.73,1.402c1.118,1.636,1.092,4.362,1.092,6.076
	c0,2.545-0.26,4.388-0.858,5.583c-0.598,1.194-1.586,1.766-2.938,1.766c-1.248,0-2.184-0.519-2.834-1.532
	C23.163,14.775,22.824,12.828,22.824,9.919z"/>
<path d="M36.836,0.883l-1.716,9.556l1.898,0.104c0.988-1.168,2.106-1.74,3.432-1.74c2.314,0,4.16,1.688,4.16,4.181
	c0,2.7-1.638,4.362-3.9,4.362c-2.132,0-3.744-1.376-3.874-3.324h-2.21v0.026c0.104,3.246,2.652,5.245,5.876,5.245
	c3.848,0,6.448-2.623,6.448-6.154c0-3.895-2.392-6.284-5.954-6.284c-1.456,0-2.652,0.467-3.432,1.324l-0.052-0.052L38.5,2.83h7.436
	V0.883H36.836z"/>
<path d="M55.268,0l-7.696,19.423h1.898L57.166,0H55.268z"/>
<path d="M64.133,0.571C63.691,2.934,62,4.025,58.906,4.025h-0.078v1.766h4.784v13.191h2.21V0.571H64.133z"/>
<path d="M78.456,0.571c-0.442,2.363-2.132,3.454-5.226,3.454h-0.078v1.766h4.784v13.191h2.21V0.571H78.456z"/>
</svg>
