<?xml version="1.0" encoding="iso-8859-1"?>
<!-- Generator: Adobe Illustrator 22.0.1, SVG Export Plug-In . SVG Version: 6.00 Build 0)  -->
<svg version="1.1" id="Capa_1" xmlns="http://www.w3.org/2000/svg" xmlns:xlink="http://www.w3.org/1999/xlink" x="0px" y="0px"
	 viewBox="0 0 80.159 19.452" style="enable-background:new 0 0 80.159 19.452;" xml:space="preserve">
<path d="M0,0.442V19.01h12.3v-2.08H2.47V0.442H0z"/>
<path d="M26.963,0.572c-0.442,2.366-2.132,3.459-5.227,3.459h-0.078v1.768h4.785V19.01h2.211V0.572H26.963z"/>
<path d="M40.951,0.572c-2.054,0-3.563,0.676-4.603,2.054c-1.014,1.352-1.534,3.797-1.534,7.333c0,3.511,0.52,5.955,1.534,7.308
	c1.014,1.378,2.549,2.054,4.603,2.054c2.055,0,3.589-0.702,4.603-2.028c1.04-1.352,1.534-3.771,1.534-7.334
	c0-3.563-0.52-6.033-1.534-7.359C44.514,1.248,43.005,0.572,40.951,0.572z M37.154,9.934c0-2.939,0.338-4.915,0.988-5.903
	c0.676-1.014,1.612-1.508,2.783-1.508c1.3,0,2.159,0.572,2.73,1.404c1.118,1.638,1.092,4.369,1.092,6.085
	c0,2.548-0.26,4.395-0.858,5.591c-0.598,1.196-1.586,1.768-2.939,1.768c-1.248,0-2.184-0.52-2.834-1.534
	C37.492,14.797,37.154,12.847,37.154,9.934z"/>
<path d="M55.277,0l-7.698,19.452h1.898L57.175,0H55.277z"/>
<path d="M64.143,0.572c-0.442,2.366-2.132,3.459-5.227,3.459h-0.078v1.768h4.785V19.01h2.21V0.572H64.143z"/>
<path d="M78.469,0.572c-0.442,2.366-2.132,3.459-5.227,3.459h-0.078v1.768h4.785V19.01h2.21V0.572H78.469z"/>
</svg>
