<?xml version="1.0" encoding="iso-8859-1"?>
<!-- Generator: Adobe Illustrator 22.0.1, SVG Export Plug-In . SVG Version: 6.00 Build 0)  -->
<svg version="1.1" id="Capa_1" xmlns="http://www.w3.org/2000/svg" xmlns:xlink="http://www.w3.org/1999/xlink" x="0px" y="0px"
	 viewBox="0 0 142.266 19.169" style="enable-background:new 0 0 142.266 19.169;" xml:space="preserve">
<path d="M76.92,10.023l-0.001,0.207c-1.697,0.073-1.391,0.411-1.396,2.042l-0.017,5.103c-1.753,1.212-3.714,1.801-5.881,1.794
	c-2.794-0.01-5.062-0.898-6.806-2.692c-1.743-1.793-2.597-4.102-2.587-6.977c0.01-2.927,0.879-5.256,2.635-6.959
	C64.596,0.836,66.949-0.011,69.925,0c1.801,0.005,3.602,0.271,5.402,0.821L75.31,5.929l-0.261-0.001
	c-0.117-3.86-2.174-5.427-5.647-5.438c-2.167-0.007-3.893,0.79-5.178,2.392c-1.285,1.602-1.945,3.776-1.954,6.495
	c-0.009,2.773,0.662,5.002,2.014,6.716c1.352,1.714,3.124,2.575,5.292,2.582c1.802,0.006,3.553-0.662,4.209-1.592l0.014-4.17
	c0.003-1.01-0.229-1.658-0.672-1.998c-0.469-0.312-0.865-0.546-2.536-0.708l0.001-0.207L76.92,10.023z"/>
<path d="M79.03,18.7v-0.206c0.862-0.027,1.436-0.207,1.697-0.493c0.235-0.284,0.366-0.88,0.366-1.812V2.821
	c0-1.476-0.392-1.969-2.063-2.046V0.568h6.292c4.569,0,6.423,1.424,6.423,4.352c0,1.424-0.548,2.539-1.671,3.289
	c-1.123,0.752-2.507,1.14-4.151,1.14v0.104c2.271,0,3.838,0.985,4.726,2.953l1.514,3.342c0.81,1.787,1.645,2.617,2.924,2.746V18.7
	h-3.342c-0.313-0.518-0.809-1.503-1.462-2.927l-1.462-3.161c-0.574-1.243-1.122-2.046-1.645-2.435
	c-0.522-0.388-1.357-0.57-2.507-0.57h-1.801v6.58c0,0.933,0.131,1.528,0.392,1.812c0.235,0.286,0.472,0.466,1.334,0.493V18.7H79.03z
	 M82.868,9.245h1.619c3.786,0,5.3-1.321,5.3-4.3c0-1.322-0.313-2.306-0.966-3.005c-0.653-0.674-1.88-1.01-3.733-1.01h-2.219V9.245z"
	/>
<path d="M109.358,12.897l-0.673,5.883L95.97,18.739l0.001-0.207c0.862-0.023,1.437-0.203,1.699-0.486
	c0.236-0.284,0.368-0.88,0.372-1.812l0.046-13.366c0.005-1.477-0.385-1.97-2.056-2.053l0.001-0.207l12.324,0.042l0.558,4.877
	l-0.209-0.001c-0.489-2.074-1.035-2.78-1.685-3.483c-0.65-0.701-1.798-1.041-3.469-1.047l-3.681-0.013L99.84,9.27l2.611,0.009
	c1.07,0.004,1.855-0.252,2.326-0.769c0.471-0.491,0.812-0.78,1.025-2.153l0.209,0.001l-0.021,6.253h-0.209
	c-0.204-1.374-0.543-1.666-1.011-2.186c-0.468-0.519-1.251-0.781-2.321-0.785l-2.611-0.009l-0.03,8.755l3.603,0.013
	c2.089,0.006,3.291-0.275,4.156-1.308c0.839-1.033,1.18-1.633,1.581-4.196H109.358z"/>
<path d="M126.601,16.188c0.339,0.958,0.679,1.554,0.966,1.812c0.287,0.286,0.731,0.441,1.384,0.493V18.7h-5.46v-0.206
	c1.854-0.078,1.752-0.544,1.099-2.436l-1.436-4.067h-7.232l-1.332,3.731c-0.783,2.253-0.363,2.693,1.491,2.772V18.7h-5.146v-0.206
	c1.593-0.182,2.219-0.726,2.924-2.669l5.535-15.257h1.54L126.601,16.188z M116.105,11.474h6.867l-3.42-9.74L116.105,11.474z"/>
<path d="M142.266,0.075V5.78h-0.209c-0.235-2.513-0.574-3.243-1.41-3.968c-0.836-0.726-1.567-0.83-3.237-0.83h-1.436v15.076
	c0,0.985,0.183,1.633,0.574,1.917c0.366,0.311,0.838,0.492,2.065,0.519V18.7h-7.055v-0.206c1.227-0.027,1.7-0.207,2.091-0.519
	c0.366-0.284,0.548-0.932,0.548-1.917V0.982h-1.436c-1.671,0-2.402,0.104-3.237,0.83c-0.836,0.725-1.175,1.455-1.41,3.968h-0.209
	V0.075h0.131c0.339,0.337,0.966,0.493,1.906,0.493h10.287c0.94,0,1.567-0.156,1.906-0.493H142.266z"/>
<path d="M32.391,1.069c-1.676,0.077-1.7,0.435-1.7,2.148v13.202c0,1.714,0.361,2.072,2.037,2.148v0.205H26.9v-0.205
	c1.676-0.076,2.037-0.434,2.037-2.148v-6.37h-9.592v6.37c0,1.714,0.361,2.072,2.037,2.148v0.205h-5.491v-0.205
	c1.676-0.076,1.7-0.434,1.7-2.148V3.218c0-1.713-0.024-2.071-1.7-2.148V0.865h5.491v0.204c-1.676,0.077-2.037,0.435-2.037,1.815
	v6.294h9.592v-5.96c0-1.713-0.361-2.071-2.037-2.148V0.865h5.491V1.069z"/>
<path d="M47.347,12.961l-0.665,5.811L34.124,18.73l0.001-0.205c0.851-0.022,1.419-0.2,1.678-0.48
	c0.233-0.281,0.364-0.868,0.367-1.79l0.045-13.202c0.005-1.458-0.38-1.946-2.03-2.028l0.001-0.204l12.172,0.041l0.551,4.817
	l-0.206-0.001c-0.483-2.049-1.022-2.746-1.665-3.439c-0.642-0.693-1.776-1.03-3.426-1.035L37.974,1.19l-0.028,8.188l2.579,0.009
	c1.057,0.004,1.832-0.249,2.298-0.759c0.466-0.484,0.802-0.771,1.013-2.126l0.207,0.001l-0.021,6.176l-0.207-0.001
	c-0.202-1.357-0.536-1.645-0.998-2.158c-0.462-0.513-1.235-0.771-2.293-0.775l-2.579-0.009l-0.029,8.648l3.559,0.012
	c2.063,0.006,3.25-0.271,4.105-1.292c0.829-1.02,1.166-1.613,1.562-4.145L47.347,12.961z"/>
<path d="M14.269,0.266v5.667h-0.208c-0.234-2.497-0.571-3.223-1.401-3.943c-0.83-0.722-1.557-0.824-3.217-0.824H8.017v14.98
	c0,0.978,0.182,1.622,0.571,1.905c0.363,0.309,0.833,0.489,2.052,0.514v0.206h-7.01v-0.206c1.219-0.026,1.689-0.205,2.078-0.514
	c0.363-0.283,0.545-0.927,0.545-1.905V1.167H4.826c-1.66,0-2.387,0.103-3.217,0.824c-0.83,0.72-1.167,1.446-1.401,3.943H0V0.266
	h0.13c0.337,0.335,0.96,0.489,1.894,0.489h10.222c0.934,0,1.557-0.154,1.894-0.489H14.269z"/>
</svg>
