<?xml version="1.0" encoding="iso-8859-1"?>
<!-- Generator: Adobe Illustrator 22.0.1, SVG Export Plug-In . SVG Version: 6.00 Build 0)  -->
<svg version="1.1" id="Capa_1" xmlns="http://www.w3.org/2000/svg" xmlns:xlink="http://www.w3.org/1999/xlink" x="0px" y="0px"
	 viewBox="0 0 80.145 19.422" style="enable-background:new 0 0 80.145 19.422;" xml:space="preserve">
<path d="M0,0.442V18.98h12.298v-2.077H2.47V0.442H0z"/>
<path d="M26.62,0.571c-2.054,0-3.562,0.675-4.602,2.051c-1.014,1.35-1.534,3.791-1.534,7.322c0,3.505,0.52,5.946,1.534,7.296
	c1.014,1.376,2.548,2.051,4.602,2.051s3.588-0.701,4.602-2.025c1.04-1.35,1.534-3.765,1.534-7.322c0-3.557-0.52-6.024-1.534-7.348
	C30.182,1.246,28.674,0.571,26.62,0.571z M22.824,9.919c0-2.934,0.338-4.907,0.988-5.894c0.676-1.013,1.612-1.506,2.782-1.506
	c1.3,0,2.158,0.571,2.73,1.402c1.118,1.636,1.092,4.362,1.092,6.076c0,2.545-0.26,4.388-0.858,5.582
	c-0.598,1.195-1.586,1.766-2.938,1.766c-1.248,0-2.184-0.519-2.834-1.532C23.162,14.774,22.824,12.827,22.824,9.919z"/>
<path d="M40.658,0.571c-3.562,0-6.058,2.493-6.058,5.998c0,3.765,2.184,6.154,5.798,6.154c1.846,0,3.432-0.961,4.29-2.545
	l0.052,0.052c-0.156,4.83-1.456,7.114-4.16,7.114c-1.794,0-3.146-1.013-3.38-2.804h-2.21c0.338,3.116,2.418,4.751,5.59,4.751
	c4.264,0,6.396-3.116,6.396-9.918C46.976,3.453,44.922,0.571,40.658,0.571z M36.94,6.881c0-2.648,1.352-4.362,3.588-4.362
	c2.47,0,3.822,1.87,3.822,4.206c0,2.233-1.56,4.05-3.77,4.05C38.578,10.775,36.94,8.958,36.94,6.881z"/>
<path d="M55.267,0l-7.696,19.422h1.898L57.165,0H55.267z"/>
<path d="M64.132,0.571c-0.442,2.363-2.132,3.453-5.226,3.453h-0.078V5.79h4.784v13.19h2.21V0.571H64.132z"/>
<path d="M78.455,0.571c-0.442,2.363-2.132,3.453-5.226,3.453h-0.078V5.79h4.784v13.19h2.21V0.571H78.455z"/>
</svg>
