<?xml version="1.0" encoding="iso-8859-1"?>
<!-- Generator: Adobe Illustrator 22.0.1, SVG Export Plug-In . SVG Version: 6.00 Build 0)  -->
<svg version="1.1" id="Capa_1" xmlns="http://www.w3.org/2000/svg" xmlns:xlink="http://www.w3.org/1999/xlink" x="0px" y="0px"
	 viewBox="0 0 1634.998 47.013" style="enable-background:new 0 0 1634.998 47.013;" xml:space="preserve">
<path style="fill:#FFFFFF;" d="M1321.861,46.006h-6.156l-24.991-22.786v22.786h-4.708V0.562h4.708v20.743l23.825-20.743h5.44
	l-24.314,21.396L1321.861,46.006z"/>
<path style="fill:#FFFFFF;" d="M1360.69,46.006l-27.602-41.409l0.013,41.409h-4.573V0.562h7.171l27.596,41.308
	c-0.048-5.063-0.141-41.308-0.141-41.308h4.708v45.443H1360.69z"/>
<path style="fill:#FFFFFF;" d="M1479.778,46.006l-5.796-20.743c-2.608-9.276-5.875-20.869-5.875-20.869
	c-1.256,4.637-3.251,11.594-5.859,20.869l-5.796,20.743h-7.389L1436.46,0.562h4.78l11.614,41.566l11.639-41.566h7.245l11.664,41.56
	l11.588-41.56h4.781l-12.604,45.443H1479.778z"/>
<path style="fill:#FFFFFF;" d="M1555.981,31.326l-6.447,14.68h-5.07l20.427-45.443h6.447l20.355,45.443h-5.069l-6.447-14.68
	H1555.981z M1568.041,3.945l-10.395,23.552h20.789L1568.041,3.945z"/>
<path style="fill:#FFFFFF;" d="M1511.867,4.328v16.467h24.137v3.766h-24.137v17.68h27.316v3.765h-32.025V0.562h32.09v3.765H1511.867
	z"/>
<path style="fill:#FFFFFF;" d="M1416.54,4.328v41.678h-4.708V4.328h-17.392V0.562h39.565v3.765H1416.54z"/>
<path style="fill:#FFFFFF;" d="M1387.166,0.562v45.443h-4.708V0.562H1387.166z"/>
<path style="fill:#FFFFFF;" d="M1627.336,23.315c3.015-2.421,4.543-5.742,4.543-9.873c0-4.141-1.529-7.454-4.543-9.848
	c-3.004-2.386-7.354-3.595-12.93-3.595h-16.129v46.006h4.419V26.949h11.71c0.751,0,1.369-0.016,1.941-0.046l13.154,19.028
	l0.053,0.075h5.445l-13.698-19.814C1623.688,25.58,1625.716,24.613,1627.336,23.315z M1626.683,13.443
	c0,2.974-1.056,5.308-3.142,6.937c-2.091,1.634-5.19,2.462-9.207,2.462h-11.639V4.106h11.639c4.018,0,7.115,0.829,9.207,2.465
	C1625.627,8.199,1626.683,10.51,1626.683,13.443z"/>
<path style="fill:#FFFFFF;" d="M643.397,45.104c2.893-1.166,5.207-2.818,6.943-4.957c1.736-2.14,2.749-4.63,3.038-7.467h-4.918
	c-0.627,3.262-2.242,5.793-4.846,7.595c-2.604,1.8-6.003,2.701-10.198,2.701c-3.665,0-6.835-0.795-9.511-2.383
	c-2.676-1.589-4.726-3.867-6.148-6.832c-1.423-2.966-2.134-6.46-2.134-10.485s0.687-7.498,2.061-10.422
	c1.374-2.923,3.339-5.158,5.895-6.704c2.556-1.547,5.593-2.32,9.113-2.32c4.87,0,8.788,1.345,11.753,4.036
	c2.966,2.69,4.448,6.958,4.448,12.805h-16.982v3.749h21.539V0.779h-4.412v6.926h-0.145c-1.302-2.33-3.472-4.195-6.509-5.592
	c-3.038-1.399-6.437-2.097-10.198-2.097c-4.388,0-8.198,0.932-11.428,2.796c-3.231,1.863-5.726,4.544-7.486,8.038
	c-1.76,3.495-2.64,7.636-2.64,12.424c0,4.83,0.916,9.013,2.749,12.551c1.832,3.537,4.459,6.259,7.883,8.166
	c3.423,1.907,7.474,2.86,12.151,2.86C637.177,46.852,640.503,46.269,643.397,45.104z"/>
<path style="fill:#FFFFFF;" d="M760.19,15.427L753.752,0.81h-5.063l20.396,45.247h6.437L795.846,0.81h-5.062l-6.437,14.616H760.19z
	 M772.232,42.689L761.853,19.24h20.757L772.232,42.689z"/>
<path style="fill:#FFFFFF;" d="M713.38,42.308V25.912h24.1v-3.749h-24.1V4.56h27.275V0.81h-31.976v45.247h32.041v-3.749H713.38z"/>
<path style="fill:#FFFFFF;" d="M813.674,42.308V0.81h-4.701v41.498h-17.366v3.749h39.505v-3.749H813.674z"/>
<path style="fill:#FFFFFF;" d="M692.23,23.402c3.011,2.411,4.536,5.718,4.536,9.83c0,4.122-1.527,7.422-4.536,9.804
	c-3,2.377-7.343,3.58-12.911,3.58h-16.104V0.81h4.412v18.975h11.692c0.75,0,1.367,0.016,1.938,0.046l13.134-18.946l0.053-0.075
	h5.437L686.204,20.54C688.588,21.148,690.613,22.112,692.23,23.402z M691.579,33.233c0-2.961-1.055-5.285-3.137-6.906
	c-2.088-1.627-5.182-2.453-9.193-2.453h-11.621v18.655h11.621c4.011,0,7.104-0.825,9.193-2.454
	C690.524,38.455,691.579,36.152,691.579,33.233z"/>
<path style="fill:#FFFFFF;" d="M22.092,5.736v41.276h-4.706V5.736H0V2.007h39.549v3.729H22.092z"/>
<path style="fill:#FFFFFF;" d="M79.447,47.013V25.521H51.49v21.492h-4.706V2.007h4.706v19.785h27.957V2.007h4.706v45.006H79.447z"/>
<path style="fill:#FFFFFF;" d="M101.617,5.736v16.309h24.127v3.729h-24.127v17.509h27.305v3.729H96.911V2.007h32.076v3.729H101.617z
	"/>
</svg>
