<?xml version="1.0" encoding="iso-8859-1"?>
<!-- Generator: Adobe Illustrator 22.0.1, SVG Export Plug-In . SVG Version: 6.00 Build 0)  -->
<svg version="1.1" id="Capa_1" xmlns="http://www.w3.org/2000/svg" xmlns:xlink="http://www.w3.org/1999/xlink" x="0px" y="0px"
	 viewBox="0 0 1634.998 53.981" style="enable-background:new 0 0 1634.998 53.981;" xml:space="preserve">
<path style="fill:#FFFFFF;" d="M1321.497,53.981h-6.163l-25.02-25.301v25.301h-4.714V3.521h4.714v23.034l23.852-23.034h5.446
	l-24.342,23.757L1321.497,53.981z"/>
<path style="fill:#FFFFFF;" d="M1360.371,53.981l-27.635-45.979l0.013,45.979h-4.578V3.521h7.179l27.628,45.869
	c-0.048-5.623-0.141-45.869-0.141-45.869h4.714v50.46H1360.371z"/>
<path style="fill:#FFFFFF;" d="M1479.597,53.981l-5.802-23.033c-2.611-10.3-5.882-23.173-5.882-23.173
	c-1.257,5.15-3.255,12.873-5.866,23.173l-5.803,23.033h-7.398l-12.618-50.46h4.786l11.627,46.155l11.652-46.155h7.253l11.677,46.148
	l11.601-46.148h4.787l-12.619,50.46H1479.597z"/>
<path style="fill:#FFFFFF;" d="M1555.889,37.68l-6.455,16.3h-5.076l20.451-50.46h6.455l20.378,50.46h-5.075l-6.455-16.3H1555.889z
	 M1567.963,7.277l-10.406,26.151h20.813L1567.963,7.277z"/>
<path style="fill:#FFFFFF;" d="M1511.724,7.702v18.285h24.165v4.181h-24.165v19.631h27.348v4.182h-32.062V3.521h32.127v4.181
	H1511.724z"/>
<path style="fill:#FFFFFF;" d="M1416.285,7.702v46.279h-4.714V7.702h-17.413V3.521h39.612v4.181H1416.285z"/>
<path style="fill:#FFFFFF;" d="M1386.877,3.521v50.46h-4.714V3.521H1386.877z"/>
<path style="fill:#FFFFFF;" d="M1627.327,28.786c3.019-2.689,4.549-6.377,4.549-10.963c0-4.598-1.531-8.278-4.549-10.935
	c-3.008-2.65-7.363-3.993-12.945-3.993h-16.147v51.084h4.424V32.819h11.723c0.752,0,1.371-0.016,1.943-0.051l13.169,21.129
	l0.053,0.084h5.452l-13.714-22.002C1623.675,31.3,1625.705,30.225,1627.327,28.786z M1626.674,17.823
	c0,3.302-1.058,5.893-3.145,7.701c-2.093,1.814-5.196,2.734-9.218,2.734h-11.652V7.456h11.652c4.022,0,7.124,0.92,9.218,2.735
	C1625.616,11.999,1626.674,14.567,1626.674,17.823z"/>
<path style="fill:#FFFFFF;" d="M656.547,26.664l-0.002,0.55c-4.532,0.193-3.712,1.091-3.727,5.433l-0.046,13.576
	c-4.681,3.224-9.914,4.792-15.7,4.772c-7.458-0.026-13.514-2.389-18.168-7.16c-4.654-4.771-6.933-10.912-6.907-18.561
	c0.027-7.788,2.348-13.983,7.033-18.515c4.616-4.533,10.897-6.786,18.843-6.76c4.809,0.016,9.616,0.721,14.421,2.185l-0.047,13.59
	l-0.697-0.002c-0.314-10.268-5.805-14.437-15.076-14.468c-5.785-0.019-10.393,2.102-13.823,6.364
	c-3.43,4.26-5.192,10.043-5.217,17.28c-0.025,7.374,1.767,13.307,5.376,17.867c3.609,4.56,8.341,6.85,14.126,6.869
	c4.81,0.016,9.486-1.76,11.236-4.235l0.038-11.095c0.009-2.688-0.612-4.412-1.794-5.313c-1.252-0.831-2.309-1.454-6.769-1.883
	l0.002-0.551L656.547,26.664z"/>
<path style="fill:#FFFFFF;" d="M662.181,49.752v-0.552c2.3-0.069,3.834-0.552,4.531-1.31c0.627-0.758,0.976-2.343,0.976-4.824V7.507
	c0-3.927-1.046-5.237-5.507-5.444V1.511h16.799c12.198,0,17.147,3.79,17.147,11.577c0,3.79-1.464,6.755-4.461,8.753
	c-2.997,1.999-6.691,3.032-11.083,3.032v0.275c6.064,0,10.246,2.62,12.616,7.857l4.043,8.89c2.161,4.755,4.392,6.96,7.807,7.305
	v0.552h-8.922c-0.836-1.378-2.161-3.997-3.903-7.788l-3.904-8.407c-1.533-3.308-2.997-5.445-4.391-6.478
	c-1.394-1.034-3.624-1.515-6.691-1.515h-4.81v17.504c0,2.48,0.349,4.065,1.046,4.824c0.627,0.758,1.261,1.241,3.562,1.31v0.552
	H662.181z M672.427,24.598h4.322c10.107,0,14.149-3.515,14.149-11.44c0-3.515-0.836-6.133-2.579-7.994
	c-1.742-1.793-5.018-2.688-9.967-2.688h-5.925V24.598z"/>
<path style="fill:#FFFFFF;" d="M743.144,34.313l-1.796,15.652l-33.945-0.114l0.002-0.551c2.301-0.061,3.836-0.539,4.535-1.294
	c0.63-0.756,0.984-2.34,0.992-4.821l0.122-35.56c0.013-3.928-1.028-5.241-5.488-5.463l0.002-0.552l32.899,0.11l1.489,12.975
	l-0.558-0.002c-1.305-5.516-2.763-7.397-4.499-9.263c-1.736-1.867-4.8-2.773-9.261-2.788l-9.828-0.033l-0.075,22.053l6.97,0.023
	c2.858,0.01,4.951-0.673,6.211-2.047c1.259-1.305,2.168-2.075,2.738-5.724l0.558,0.001l-0.057,16.637l-0.558-0.001
	c-0.545-3.655-1.448-4.429-2.698-5.812c-1.25-1.383-3.339-2.079-6.197-2.089l-6.97-0.024l-0.08,23.294l9.619,0.032
	c5.576,0.018,8.785-0.729,11.094-3.477c2.24-2.749,3.151-4.345,4.22-11.165L743.144,34.313z"/>
<path style="fill:#FFFFFF;" d="M789.176,43.067c0.906,2.55,1.812,4.135,2.578,4.824c0.767,0.758,1.952,1.172,3.695,1.31v0.552
	h-14.575v-0.552c4.949-0.207,4.677-1.448,2.935-6.478l-3.833-10.819h-19.307l-3.555,9.924c-2.091,5.995-0.969,7.167,3.98,7.374
	v0.552h-13.738v-0.552c4.252-0.483,5.924-1.93,7.806-7.098l14.777-40.591h4.112L789.176,43.067z M761.156,30.525h18.331
	l-9.131-25.912L761.156,30.525z"/>
<path style="fill:#FFFFFF;" d="M830.997,0.202v15.176h-0.558c-0.627-6.685-1.533-8.629-3.764-10.558
	c-2.231-1.93-4.182-2.205-8.643-2.205h-3.834v40.108c0,2.618,0.488,4.342,1.533,5.1c0.976,0.827,2.237,1.31,5.514,1.378v0.552
	h-18.834v-0.552c3.276-0.069,4.538-0.552,5.583-1.378c0.976-0.758,1.464-2.481,1.464-5.1V2.614h-3.833
	c-4.461,0-6.413,0.275-8.643,2.205c-2.231,1.929-3.137,3.873-3.764,10.558h-0.558V0.202h0.349c0.906,0.896,2.579,1.31,5.088,1.31
	h27.462c2.51,0,4.182-0.414,5.088-1.31H830.997z"/>
<path style="fill:#FFFFFF;" d="M22.081,6.952v46.023h-4.704V6.952H0V2.793h39.53v4.159H22.081z"/>
<path style="fill:#FFFFFF;" d="M79.408,52.975V29.012H51.465v23.963h-4.704V2.793h4.704v22.06h27.944V2.793h4.704v50.182H79.408z"/>
<path style="fill:#FFFFFF;" d="M101.568,6.952v18.184h24.115v4.158h-24.115v19.524h27.292v4.157H96.864V2.793h32.061v4.159H101.568z
	"/>
</svg>
