<?xml version="1.0" encoding="iso-8859-1"?>
<!-- Generator: Adobe Illustrator 22.0.1, SVG Export Plug-In . SVG Version: 6.00 Build 0)  -->
<svg version="1.1" id="Capa_1" xmlns="http://www.w3.org/2000/svg" xmlns:xlink="http://www.w3.org/1999/xlink" x="0px" y="0px"
	 viewBox="0 0 69.989 25.002" style="enable-background:new 0 0 69.989 25.002;" xml:space="preserve">
<path d="M43.094,20.388c-0.531-0.555-0.531-1.489,0-2.072c0.531-0.556,1.482-0.556,2.013,0c0.531,0.584,0.531,1.518,0,2.072
	C44.576,20.973,43.625,20.973,43.094,20.388z"/>
<path d="M48.39,20.476v-0.291c1.515-0.088,2.133-0.264,2.582-0.526c0.449-0.264,0.673-0.788,0.673-1.635v-9.81
	c0-1.197-0.336-1.664-1.234-1.664c-0.477,0-1.234,0.205-2.216,0.613l-0.056-0.234l5.189-2.365v13.46
	c0,0.818,0.224,1.343,0.673,1.606c0.449,0.263,1.431,0.468,2.945,0.556v0.291H48.39z"/>
<path d="M68.25,6.957c1.15,1.606,1.739,3.738,1.739,6.395c0,3.3-0.898,6.074-2.665,8.322c-1.767,2.219-4.094,3.328-6.983,3.328
	c-1.038,0-1.572-0.147-2.301-0.409l0.196-0.467c0.645,0.262,1.123,0.409,2.133,0.409c4.516,0,7.433-3.359,7.657-10.686
	c-0.898,1.956-2.665,3.065-4.825,3.065c-3.477,0-5.834-2.248-5.834-5.898c0-1.84,0.589-3.357,1.767-4.613
	c1.178-1.227,2.664-1.84,4.459-1.84C65.529,4.563,67.072,5.352,68.25,6.957z M68.026,13.206v-0.204c0-5.577-1.459-8.088-4.404-8.088
	c-2.776,0-4.654,2.219-4.654,5.869c0,3.474,2.074,5.634,4.682,5.634C65.557,16.417,67.268,15.162,68.026,13.206z"/>
<path d="M16.89,17.671c0.366,1.084,0.732,1.759,1.041,2.051c0.31,0.322,0.788,0.498,1.492,0.557v0.234h-5.886v-0.234
	c1.999-0.088,1.889-0.616,1.185-2.755l-1.548-4.601H5.377l-1.436,4.22c-0.844,2.55-0.391,3.048,1.608,3.136v0.234H0v-0.234
	c1.717-0.206,2.393-0.82,3.153-3.018L9.12,0h1.661L16.89,17.671z M5.574,12.338h7.403L9.289,1.318L5.574,12.338z"/>
<path d="M38.83,0.378h4.854v0.231c-1.359,0.029-2.052,0.867-2.745,3.175l-5.352,17.09h-0.111l-4.77-14.145l-4.437,14.145h-0.111
	L20.363,3.611c-0.388-1.183-0.749-1.992-1.054-2.396c-0.333-0.375-0.804-0.577-1.442-0.606V0.378h6.047v0.231
	c-1.47,0.087-1.749,0.491-1.749,1.529c0,0.463,0.111,1.04,0.333,1.733l3.967,13.308l3.936-11.316l-0.86-2.569
	c-0.36-1.069-0.721-1.762-1.026-2.137c-0.333-0.346-0.887-0.519-1.636-0.548V0.378h5.991v0.231
	c-1.303,0.058-1.582,0.519-1.582,1.415c0,0.317,0.056,0.693,0.194,1.068l4.3,14.001l4.546-13.221
	c0.222-0.693,0.333-1.27,0.333-1.703c0-1.069-0.279-1.531-1.832-1.559V0.378z"/>
</svg>
