<?xml version="1.0" encoding="iso-8859-1"?>
<!-- Generator: Adobe Illustrator 22.0.1, SVG Export Plug-In . SVG Version: 6.00 Build 0)  -->
<svg version="1.1" id="Capa_1" xmlns="http://www.w3.org/2000/svg" xmlns:xlink="http://www.w3.org/1999/xlink" x="0px" y="0px"
	 viewBox="0 0 80.145 19.422" style="enable-background:new 0 0 80.145 19.422;" xml:space="preserve">
<path d="M0,0.441V18.98h12.298v-2.077H2.47V0.441H0z"/>
<path d="M26.62,0.571c-2.054,0-3.562,0.675-4.602,2.051c-1.014,1.35-1.534,3.791-1.534,7.322c0,3.505,0.52,5.946,1.534,7.296
	c1.014,1.376,2.548,2.051,4.602,2.051c2.054,0,3.588-0.701,4.602-2.025c1.04-1.35,1.534-3.765,1.534-7.322
	c0-3.557-0.52-6.024-1.534-7.348C30.182,1.246,28.674,0.571,26.62,0.571z M22.824,9.919c0-2.934,0.338-4.907,0.988-5.894
	c0.676-1.013,1.612-1.506,2.782-1.506c1.3,0,2.158,0.571,2.73,1.402c1.118,1.636,1.092,4.362,1.092,6.076
	c0,2.545-0.26,4.388-0.858,5.583c-0.598,1.194-1.586,1.766-2.938,1.766c-1.248,0-2.184-0.519-2.834-1.532
	C23.162,14.774,22.824,12.826,22.824,9.919z"/>
<path d="M40.788,0.571c-3.614,0-5.954,2.415-5.954,6.05l0.026,0.467h2.21V6.907c0-2.519,1.326-4.388,3.588-4.388
	c2.002,0,3.562,1.402,3.562,3.349c0,1.039-0.286,1.921-0.884,2.674c-0.572,0.727-1.95,1.792-4.082,3.064
	c-1.794,1.09-3.068,2.207-3.744,3.349c-0.65,1.168-1.04,2.493-1.17,4.025h12.038v-1.947h-9.464c0.26-1.428,1.222-2.57,4.056-4.206
	c2.314-1.324,3.822-2.493,4.524-3.531c0.702-1.013,1.066-2.155,1.066-3.427C46.56,2.622,44.194,0.571,40.788,0.571z"/>
<path d="M55.267,0l-7.696,19.422h1.898L57.165,0H55.267z"/>
<path d="M64.131,0.571c-0.442,2.363-2.132,3.453-5.226,3.453h-0.078V5.79h4.784v13.19h2.21V0.571H64.131z"/>
<path d="M78.455,0.571c-0.442,2.363-2.132,3.453-5.226,3.453h-0.078V5.79h4.784v13.19h2.21V0.571H78.455z"/>
</svg>
