<?xml version="1.0" encoding="iso-8859-1"?>
<!-- Generator: Adobe Illustrator 22.0.1, SVG Export Plug-In . SVG Version: 6.00 Build 0)  -->
<svg version="1.1" id="Capa_1" xmlns="http://www.w3.org/2000/svg" xmlns:xlink="http://www.w3.org/1999/xlink" x="0px" y="0px"
	 viewBox="0 0 131.999 18.993" style="enable-background:new 0 0 131.999 18.993;" xml:space="preserve">
<path d="M5.849,0.211C4.995,0.238,4.426,0.395,4.193,0.659C3.934,0.922,3.805,1.475,3.805,2.291v13.588
	c0,0.947,0.129,1.553,0.388,1.842c0.233,0.29,0.802,0.474,1.656,0.501v0.21H0v-0.21c0.854-0.027,1.424-0.211,1.682-0.501
	c0.233-0.289,0.362-0.895,0.362-1.842V2.291c0-1.5-0.388-2-2.045-2.08V0h5.849V0.211z M12.785,16.483
	c0.647,0.659,1.139,1.08,1.527,1.316c0.388,0.238,0.906,0.395,1.604,0.422v0.21h-3.96L3.805,8.847l6.16-6.003
	c0.958-0.922,1.423-1.528,1.423-1.87c0-0.554-0.362-0.737-1.682-0.763V0h5.228v0.211C14.157,0.29,13.484,0.5,12.94,0.816
	c-0.569,0.316-1.32,0.948-2.251,1.87L5.357,7.952L12.785,16.483z"/>
<path d="M41.639,0.211c-0.854,0.027-1.423,0.184-1.656,0.448c-0.259,0.263-0.388,0.816-0.388,1.632v13.588
	c0,0.947,0.129,1.553,0.388,1.842c0.233,0.29,0.803,0.474,1.656,0.501v0.21H35.79v-0.21c0.854-0.027,1.424-0.211,1.682-0.501
	c0.233-0.289,0.362-0.895,0.362-1.842V2.291c0-1.5-0.388-2-2.044-2.08V0h5.849V0.211z"/>
<path d="M117.101,18.017v-0.206c0.835-0.026,1.061-0.206,1.314-0.49c0.228-0.283,0.354-0.875,0.354-1.801V2.239
	c0-1.467-0.049-1.957-1.668-2.034V0h5.767c4.427,0,6.224,1.416,6.224,4.325c0,1.415-0.531,2.522-1.619,3.269
	c-1.088,0.746-2.429,1.132-4.023,1.132v0.103c2.201,0,3.719,0.979,4.579,2.934l1.468,3.32c0.784,1.777,1.263,2.6,2.503,2.729v0.206
	h-2.908c-0.304-0.515-0.785-1.493-1.417-2.909l-1.417-3.139c-0.556-1.236-1.088-2.034-1.594-2.42
	c-0.506-0.386-1.316-0.566-2.429-0.566h-1.746v6.537c0,0.926,0.126,1.519,0.379,1.801c0.228,0.284,0.785,0.464,1.619,0.49v0.206
	H117.101z M120.49,8.286h1.568c3.668,0,5.136-0.977,5.136-3.936c0-1.313-0.304-2.291-0.936-2.986
	c-0.633-0.669-1.822-1.004-3.618-1.004h-2.15V8.286z"/>
<path d="M96.35,12.188l-0.65,5.833l-12.294-0.042l0.001-0.206c0.833-0.022,1.389-0.2,1.643-0.482
	c0.228-0.283,0.356-0.873,0.359-1.797l0.044-13.253c0.005-1.464-0.372-1.953-1.988-2.036L83.465,0l11.916,0.042l0.539,4.835
	l-0.202-0.001c-0.473-2.056-1.001-2.757-1.63-3.453c-0.629-0.695-1.738-1.032-3.354-1.039l-3.56-0.012l-0.027,8.219L89.672,8.6
	c1.035,0.004,1.793-0.25,2.249-0.762c0.456-0.486,0.785-0.773,0.992-2.133h0.202l-0.021,6.201l-0.202-0.001
	c-0.198-1.361-0.525-1.65-0.977-2.166c-0.453-0.515-1.209-0.775-2.244-0.779l-2.524-0.009l-0.029,8.681l3.484,0.012
	c2.02,0.008,3.182-0.271,4.018-1.296c0.811-1.025,1.141-1.619,1.529-4.161H96.35z"/>
<path d="M113.089,15.496c0.328,0.951,0.657,1.542,0.934,1.799c0.278,0.283,0.707,0.437,1.339,0.488v0.206h-5.282v-0.206
	c1.794-0.077,1.695-0.54,1.064-2.416l-1.389-4.034h-6.997l-1.288,3.701c-0.758,2.235-0.351,2.672,1.442,2.749v0.206h-4.979v-0.206
	c1.541-0.18,2.147-0.72,2.829-2.646L106.118,0h1.49L113.089,15.496z M102.935,10.819h6.643l-3.309-9.663L102.935,10.819z"/>
<path d="M56.465,0v5.665h-0.202c-0.228-2.495-0.556-3.22-1.366-3.941c-0.809-0.721-1.517-0.824-3.136-0.824H50.37v14.974
	c0,0.978,0.177,1.621,0.556,1.904c0.354,0.309,0.812,0.49,2,0.515V18.5h-6.833v-0.206c1.189-0.026,1.646-0.207,2.026-0.515
	c0.354-0.283,0.531-0.926,0.531-1.904V0.901H47.26c-1.618,0-2.327,0.103-3.136,0.824c-0.809,0.721-1.138,1.446-1.366,3.941h-0.202V0
	h0.126c0.329,0.335,0.936,0.489,1.846,0.489h9.964c0.91,0,1.517-0.154,1.846-0.489H56.465z"/>
<path d="M77.675,0.344h4.519v0.211c-1.265,0.026-1.91,0.787-2.556,2.888l-4.982,15.55h-0.103l-4.44-12.87l-4.131,12.87h-0.103
	L60.484,3.286c-0.361-1.076-0.697-1.812-0.981-2.179c-0.31-0.342-0.749-0.526-1.342-0.552V0.344h5.629v0.211
	c-1.368,0.078-1.628,0.447-1.628,1.391c0,0.421,0.103,0.946,0.31,1.576l3.693,12.107l3.665-10.295l-0.8-2.338
	c-0.336-0.971-0.671-1.602-0.955-1.943c-0.31-0.316-0.826-0.473-1.523-0.499V0.344h5.578v0.211
	c-1.213,0.052-1.473,0.472-1.473,1.286c0,0.289,0.052,0.631,0.181,0.972l4.003,12.738l4.232-12.029
	c0.207-0.631,0.31-1.155,0.31-1.55c0-0.971-0.26-1.392-1.705-1.418V0.344z"/>
<path d="M29.181,0h5.225v0.213c-1.88,0.079-2.221,0.849-2.221,2.948v15.699h-0.078L19.992,2.391v12.75
	c0,2.445,0.393,3.161,2.482,3.242v0.212h-5.225v-0.212c1.88-0.08,2.221-0.877,2.221-3.242V1.674
	c-0.731-0.956-1.384-1.434-2.559-1.461V0h3.681l11.071,14.956V3.161c0-2.152-0.393-2.869-2.482-2.948V0z"/>
</svg>
