<?xml version="1.0" encoding="iso-8859-1"?>
<!-- Generator: Adobe Illustrator 22.0.1, SVG Export Plug-In . SVG Version: 6.00 Build 0)  -->
<svg version="1.1" id="Capa_1" xmlns="http://www.w3.org/2000/svg" xmlns:xlink="http://www.w3.org/1999/xlink" x="0px" y="0px"
	 viewBox="0 0 457.001 50.013" style="enable-background:new 0 0 457.001 50.013;" xml:space="preserve">
<path style="fill:#FFFFFF;" d="M83.604,50.013c-4.247,0-7.954-1.015-11.116-3.044c-3.164-2.031-5.608-4.907-7.333-8.631
	c-1.725-3.725-2.588-8.063-2.588-13.015c0-4.951,0.863-9.29,2.588-13.014c1.726-3.725,4.17-6.602,7.333-8.631
	c3.163-2.031,6.869-3.045,11.116-3.045s7.953,1.014,11.116,3.045c3.163,2.029,5.597,4.894,7.3,8.597
	c1.703,3.703,2.555,8.053,2.555,13.048c0,4.996-0.852,9.345-2.555,13.048c-1.704,3.701-4.137,6.567-7.3,8.598
	C91.556,48.997,87.851,50.013,83.604,50.013z M83.604,45.932c3.319,0,6.216-0.848,8.694-2.543c2.478-1.695,4.391-4.093,5.741-7.193
	c1.349-3.1,2.024-6.724,2.024-10.873c0-4.148-0.675-7.773-2.024-10.873c-1.351-3.1-3.263-5.498-5.741-7.193
	c-2.478-1.695-5.375-2.543-8.694-2.543c-3.318,0-6.217,0.837-8.694,2.51c-2.478,1.673-4.391,4.07-5.741,7.193
	c-1.35,3.122-2.024,6.759-2.024,10.906c0,4.149,0.674,7.784,2.024,10.906c1.349,3.122,3.262,5.52,5.741,7.193
	C77.387,45.095,80.285,45.932,83.604,45.932z"/>
<path style="fill:#FFFFFF;" d="M161.252,0.632v49.248h-6.354L137.835,5.273l-17.153,44.607h-6.351V0.632h4.314
	c0,0-0.013,18.301-0.066,44.674l16.658-44.674h5.044l16.725,44.674c-0.045-4.104-0.067-44.674-0.067-44.674H161.252z"/>
<path style="fill:#FFFFFF;" d="M385.039,0.632v6.156h-6.105V0.632H385.039z"/>
<path style="fill:#FFFFFF;" d="M307.564,16.542l6.106-15.909h4.802l-19.346,49.248h-6.106L273.743,0.632h4.801l6.106,15.909H307.564
	z M296.142,46.215l9.844-25.523h-19.689L296.142,46.215z"/>
<path style="fill:#FFFFFF;" d="M200.085,16.542l6.106-15.909h4.802l-19.346,49.248h-6.106L166.264,0.632h4.801l6.106,15.909H200.085
	z M188.663,46.215l9.844-25.523h-19.689L188.663,46.215z"/>
<path style="fill:#FFFFFF;" d="M336.363,0.632l5.489,22.48c2.47,10.052,5.564,22.616,5.564,22.616
	c1.189-5.026,3.079-12.564,5.549-22.616l5.489-22.48h6.998l11.937,49.248h-4.527L361.862,4.834l-11.023,45.046h-6.861l-11.047-45.04
	l-10.975,45.04h-4.528l11.937-49.248H336.363z"/>
<path style="fill:#FFFFFF;" d="M18.934,0.632l5.489,22.48c2.47,10.052,5.564,22.616,5.564,22.616
	c1.189-5.026,3.079-12.564,5.549-22.616l5.489-22.48h6.998L59.96,49.881h-4.527L44.434,4.834L33.411,49.881h-6.861L15.503,4.841
	L4.528,49.881H0L11.937,0.632H18.934z"/>
<path style="fill:#FFFFFF;" d="M215.464,49.881V0.632h4.459c0,0-0.088,39.28-0.133,44.767l26.135-44.767h6.791v49.248h-4.331
	l0.012-44.875l-26.142,44.875H215.464z"/>
<path style="fill:#FFFFFF;" d="M407.202,45.81c-0.64-4.26-2.048-6.582-4.928-7.745c-1.472-0.581-3.713-0.903-7.682-0.968v-2.903
	h11.843V0.632h4.033V45.81H407.202z"/>
<path style="fill:#FFFFFF;" d="M441.318,46.533c-8.706,0-15.171-6.326-15.171-15.296c0-8.842,5.889-15.103,14.787-15.103
	c4.737,0,9.666,2.711,11.907,7.487h0.128c0-12.715-4.161-20.201-12.355-20.201c-4.865,0-8.578,3.099-9.346,8.39h-4.032
	C428.196,3.871,433.061,0,440.998,0c12.931,0,16.004,13.424,16.004,22.653C457.001,39.433,452.649,46.533,441.318,46.533z
	 M430.18,31.495c0,6.454,4.546,11.616,10.755,11.616c7.297,0,11.202-4.518,11.202-11.616c0-6.519-3.969-11.94-11.139-11.94
	C434.469,19.555,430.18,24.589,430.18,31.495z"/>
</svg>
