<?xml version="1.0" encoding="iso-8859-1"?>
<!-- Generator: Adobe Illustrator 22.0.1, SVG Export Plug-In . SVG Version: 6.00 Build 0)  -->
<svg version="1.1" id="Capa_1" xmlns="http://www.w3.org/2000/svg" xmlns:xlink="http://www.w3.org/1999/xlink" x="0px" y="0px"
	 viewBox="0 0 131.978 18.963" style="enable-background:new 0 0 131.978 18.963;" xml:space="preserve">
<path d="M5.848,0.21C4.995,0.236,4.425,0.395,4.192,0.657C3.933,0.92,3.804,1.473,3.804,2.287v13.566
	c0,0.946,0.129,1.552,0.388,1.84c0.233,0.29,0.802,0.474,1.656,0.499v0.211H0v-0.211c0.854-0.026,1.423-0.21,1.682-0.499
	c0.233-0.289,0.362-0.894,0.362-1.84V2.287C2.044,0.788,1.656,0.289,0,0.21V0h5.848V0.21z M12.783,16.458
	c0.647,0.658,1.139,1.079,1.527,1.315c0.388,0.236,0.906,0.395,1.604,0.42v0.211h-3.959L3.804,8.833l6.159-5.994
	c0.957-0.92,1.423-1.525,1.423-1.867c0-0.552-0.362-0.736-1.682-0.763V0h5.227v0.21c-0.777,0.079-1.449,0.29-1.993,0.605
	c-0.569,0.315-1.319,0.946-2.251,1.866L5.357,7.94L12.783,16.458z"/>
<path d="M41.633,0.21c-0.854,0.027-1.423,0.185-1.656,0.447c-0.259,0.263-0.388,0.816-0.388,1.631v13.566
	c0,0.946,0.129,1.552,0.388,1.84c0.233,0.29,0.802,0.474,1.656,0.499v0.211h-5.848v-0.211c0.854-0.026,1.423-0.21,1.682-0.499
	c0.233-0.289,0.362-0.894,0.362-1.84V2.287c0-1.499-0.388-1.999-2.044-2.078V0h5.848V0.21z"/>
<path d="M117.083,17.99v-0.206c0.835-0.025,1.061-0.205,1.314-0.488c0.228-0.283,0.354-0.874,0.354-1.799V2.236
	c0-1.465-0.049-1.954-1.668-2.031V0h5.766c4.427,0,6.223,1.413,6.223,4.317c0,1.414-0.531,2.518-1.619,3.264
	c-1.087,0.746-2.428,1.131-4.022,1.131v0.103c2.201,0,3.718,0.976,4.578,2.93l1.467,3.315c0.784,1.773,1.263,2.595,2.502,2.724
	v0.206h-2.907c-0.304-0.514-0.784-1.491-1.417-2.904l-1.416-3.135c-0.557-1.234-1.088-2.031-1.594-2.416
	c-0.506-0.385-1.315-0.566-2.428-0.566h-1.745v6.529c0,0.925,0.126,1.515,0.379,1.799c0.228,0.282,0.785,0.463,1.619,0.488v0.206
	H117.083z M120.471,8.274h1.568c3.668,0,5.135-0.975,5.135-3.931c0-1.31-0.304-2.287-0.936-2.982
	c-0.632-0.667-1.821-1.002-3.617-1.002h-2.15V8.274z"/>
<path d="M96.335,12.17l-0.65,5.825l-12.292-0.043l0.001-0.204c0.833-0.023,1.389-0.201,1.642-0.482
	c0.228-0.281,0.357-0.871,0.36-1.795l0.044-13.233c0.005-1.462-0.372-1.951-1.987-2.033L83.452,0l11.914,0.041l0.539,4.828h-0.202
	c-0.473-2.053-1.001-2.754-1.629-3.448c-0.629-0.695-1.738-1.032-3.354-1.037l-3.559-0.013l-0.027,8.208l2.524,0.009
	c1.035,0.003,1.793-0.25,2.249-0.762c0.456-0.486,0.785-0.772,0.992-2.131L93.1,5.696l-0.021,6.191h-0.202
	c-0.197-1.36-0.524-1.649-0.977-2.163c-0.452-0.514-1.209-0.773-2.244-0.776l-2.524-0.009l-0.029,8.668l3.483,0.012
	c2.02,0.006,3.182-0.271,4.018-1.295c0.811-1.022,1.141-1.617,1.528-4.155L96.335,12.17z"/>
<path d="M113.071,15.473c0.328,0.95,0.657,1.54,0.934,1.797c0.278,0.282,0.707,0.436,1.339,0.488v0.205h-5.281v-0.205
	c1.793-0.077,1.695-0.539,1.063-2.412l-1.389-4.028h-6.996l-1.288,3.695c-0.757,2.233-0.351,2.669,1.442,2.746v0.205h-4.978v-0.205
	c1.54-0.18,2.147-0.718,2.828-2.643L106.101,0h1.49L113.071,15.473z M102.919,10.803h6.642l-3.309-9.648L102.919,10.803z"/>
<path d="M56.456,0v5.657h-0.202c-0.228-2.492-0.556-3.217-1.365-3.936c-0.809-0.719-1.517-0.821-3.135-0.821h-1.391v14.952
	c0,0.976,0.177,1.618,0.556,1.901c0.354,0.308,0.812,0.488,2,0.513v0.205h-6.832v-0.205c1.189-0.026,1.646-0.205,2.025-0.513
	c0.354-0.283,0.531-0.925,0.531-1.901V0.899h-1.39c-1.618,0-2.326,0.103-3.136,0.821c-0.809,0.72-1.138,1.445-1.365,3.936h-0.202V0
	h0.126c0.329,0.334,0.935,0.488,1.846,0.488h9.962c0.91,0,1.517-0.154,1.846-0.488H56.456z"/>
<path d="M77.663,0.343h4.518v0.21c-1.265,0.027-1.91,0.787-2.555,2.885l-4.981,15.525h-0.103l-4.44-12.851l-4.13,12.851h-0.103
	L60.474,3.281c-0.361-1.076-0.697-1.81-0.981-2.177c-0.309-0.341-0.749-0.524-1.342-0.551v-0.21h5.628v0.21
	c-1.368,0.079-1.627,0.446-1.627,1.39c0,0.419,0.103,0.944,0.31,1.573l3.692,12.09l3.664-10.28l-0.8-2.334
	c-0.336-0.971-0.671-1.6-0.955-1.941c-0.31-0.314-0.826-0.472-1.523-0.498v-0.21h5.577v0.21c-1.213,0.052-1.473,0.473-1.473,1.285
	c0,0.289,0.052,0.629,0.181,0.97l4.002,12.719l4.232-12.011c0.207-0.629,0.31-1.154,0.31-1.546c0-0.971-0.26-1.39-1.705-1.417V0.343
	z"/>
<path d="M29.177,0h5.224v0.212c-1.88,0.08-2.221,0.849-2.221,2.944v15.677h-0.078L19.989,2.387v12.732
	c0,2.44,0.393,3.157,2.481,3.236v0.213h-5.224v-0.213c1.88-0.079,2.22-0.875,2.22-3.236V1.671c-0.731-0.956-1.383-1.433-2.558-1.46
	V0h3.681l11.069,14.933V3.156c0-2.148-0.393-2.864-2.481-2.944V0z"/>
</svg>
