<?xml version="1.0" encoding="iso-8859-1"?>
<!-- Generator: Adobe Illustrator 22.0.1, SVG Export Plug-In . SVG Version: 6.00 Build 0)  -->
<svg version="1.1" id="Capa_1" xmlns="http://www.w3.org/2000/svg" xmlns:xlink="http://www.w3.org/1999/xlink" x="0px" y="0px"
	 viewBox="0 0 733.998 52.003" style="enable-background:new 0 0 733.998 52.003;" xml:space="preserve">
<path style="fill:#FFFFFF;" d="M22.081,5.973v46.023h-4.704V5.973H0V1.814h39.53v4.159H22.081z"/>
<path style="fill:#FFFFFF;" d="M79.408,51.996V28.033H51.465v23.963h-4.704V1.814h4.704v22.06h27.943V1.814h4.704v50.182H79.408z"/>
<path style="fill:#FFFFFF;" d="M101.568,5.973v18.184h24.115v4.158h-24.115v19.523h27.292v4.159H96.864V1.814h32.061v4.159H101.568z
	"/>
<path style="fill:#FFFFFF;" d="M180.397,1.94c2.893,1.295,5.208,3.129,6.943,5.504c1.736,2.376,2.749,5.141,3.038,8.292h-4.918
	c-0.627-3.622-2.242-6.432-4.846-8.432c-2.604-2-6.003-3-10.198-3c-3.665,0-6.835,0.883-9.511,2.646
	c-2.676,1.764-4.726,4.293-6.148,7.586c-1.423,3.293-2.134,7.174-2.134,11.643c0,4.47,0.687,8.327,2.061,11.572
	c1.374,3.246,3.338,5.728,5.895,7.444c2.555,1.718,5.593,2.576,9.113,2.576c4.87,0,8.788-1.493,11.754-4.481
	c2.965-2.986,4.448-7.726,4.448-14.218h-16.982v-4.163h21.539v26.25h-4.412v-7.692h-0.144c-1.302,2.588-3.472,4.658-6.509,6.209
	c-3.038,1.553-6.438,2.328-10.198,2.328c-4.388,0-8.198-1.033-11.428-3.105c-3.231-2.069-5.726-5.045-7.486-8.925
	c-1.761-3.881-2.64-8.479-2.64-13.795c0-5.362,0.916-10.007,2.749-13.936c1.832-3.927,4.459-6.951,7.883-9.068
	C161.688,1.058,165.738,0,170.415,0C174.177,0,177.503,0.647,180.397,1.94z"/>
<path style="fill:#FFFFFF;" d="M297.189,34.893l-6.437,16.23h-5.063l20.396-50.241h6.438l20.324,50.241h-5.062l-6.437-16.23H297.189
	z M309.232,4.621l-10.379,26.038h20.757L309.232,4.621z"/>
<path style="fill:#FFFFFF;" d="M250.38,5.044V23.25h24.1v4.163h-24.1v19.546h27.275v4.163h-31.976V0.882h32.041v4.163H250.38z"/>
<path style="fill:#FFFFFF;" d="M350.674,5.044v46.078h-4.701V5.044h-17.366V0.882h39.505v4.163H350.674z"/>
<path style="fill:#FFFFFF;" d="M229.23,26.037c3.011-2.677,4.536-6.349,4.536-10.915c0-4.577-1.527-8.24-4.536-10.886
	c-3-2.638-7.343-3.976-12.911-3.976h-16.104v50.863h4.412V30.053h11.692c0.75,0,1.367-0.016,1.938-0.051l13.134,21.037l0.053,0.084
	h5.437l-13.677-21.906C225.588,28.541,227.613,27.471,229.23,26.037z M228.579,15.121c0,3.288-1.055,5.868-3.137,7.669
	c-2.088,1.807-5.182,2.722-9.193,2.722h-11.621V4.8h11.621c4.012,0,7.104,0.916,9.193,2.723
	C227.524,9.323,228.579,11.879,228.579,15.121z"/>
<path style="fill:#FFFFFF;" d="M420.497,52h-6.163l-25.02-25.3V52H384.6V1.541h4.714v23.033l23.852-23.033h5.446L394.27,25.299
	L420.497,52z"/>
<path style="fill:#FFFFFF;" d="M459.371,52L431.736,6.021L431.749,52h-4.578V1.541h7.179l27.628,45.868
	c-0.049-5.622-0.141-45.868-0.141-45.868h4.714V52H459.371z"/>
<path style="fill:#FFFFFF;" d="M578.597,52l-5.802-23.033c-2.611-10.3-5.882-23.173-5.882-23.173
	c-1.257,5.15-3.255,12.873-5.866,23.173L555.244,52h-7.398L535.229,1.541h4.786l11.627,46.155l11.652-46.155h7.253l11.677,46.148
	l11.601-46.148h4.787L585.994,52H578.597z"/>
<path style="fill:#FFFFFF;" d="M654.889,35.701L648.434,52h-5.076l20.45-50.459h6.455L690.641,52h-5.076l-6.455-16.299H654.889z
	 M666.963,5.297l-10.407,26.151h20.813L666.963,5.297z"/>
<path style="fill:#FFFFFF;" d="M610.724,5.722v18.285h24.165v4.181h-24.165v19.631h27.348V52H606.01V1.541h32.127v4.181H610.724z"/>
<path style="fill:#FFFFFF;" d="M515.285,5.722V52h-4.714V5.722h-17.413V1.541h39.612v4.181H515.285z"/>
<path style="fill:#FFFFFF;" d="M485.877,1.541V52h-4.714V1.541H485.877z"/>
<path style="fill:#FFFFFF;" d="M726.326,26.806c3.019-2.688,4.549-6.375,4.549-10.962c0-4.597-1.531-8.277-4.549-10.934
	c-3.008-2.65-7.363-3.993-12.945-3.993h-16.147V52h4.424V30.84h11.723c0.752,0,1.371-0.017,1.943-0.051l13.169,21.129L728.547,52
	h5.452l-13.714-22.001C722.674,29.32,724.705,28.246,726.326,26.806z M725.674,15.843c0,3.303-1.058,5.894-3.146,7.702
	c-2.093,1.814-5.196,2.734-9.218,2.734h-11.652V5.477h11.652c4.023,0,7.124,0.92,9.218,2.735
	C724.616,10.02,725.674,12.587,725.674,15.843z"/>
</svg>
