<?xml version="1.0" encoding="iso-8859-1"?>
<!-- Generator: Adobe Illustrator 22.0.1, SVG Export Plug-In . SVG Version: 6.00 Build 0)  -->
<svg version="1.1" id="Capa_1" xmlns="http://www.w3.org/2000/svg" xmlns:xlink="http://www.w3.org/1999/xlink" x="0px" y="0px"
	 viewBox="0 0 456.237 60.038" style="enable-background:new 0 0 456.237 60.038;" xml:space="preserve">
<path style="fill:#FFFFFF;" d="M51.673,1.372h11.966V1.92c-3.35,0.069-5.058,2.06-6.767,7.548L43.68,50.089h-0.274L31.649,16.466
	L20.712,50.089h-0.273L6.152,9.056C5.195,6.244,4.307,4.321,3.554,3.362C2.735,2.47,1.572,1.989,0,1.92V1.372h14.906V1.92
	c-3.623,0.207-4.31,1.167-4.31,3.637c0,1.099,0.274,2.47,0.82,4.117l9.778,31.631l9.703-26.897l-2.119-6.108
	C27.889,5.763,27,4.116,26.249,3.225c-0.82-0.824-2.188-1.236-4.033-1.304V1.372h14.768V1.92c-3.213,0.138-3.9,1.236-3.9,3.363
	c0,0.755,0.137,1.647,0.479,2.538L44.162,41.1L55.368,9.674c0.547-1.647,0.82-3.018,0.82-4.048c0-2.538-0.687-3.637-4.515-3.706
	V1.372z"/>
<path style="fill:#FFFFFF;" d="M379.462,1.028h11.966v0.549c-3.349,0.069-5.058,2.06-6.767,7.548l-13.192,40.62h-0.274
	l-11.757-33.622l-10.937,33.622h-0.273L333.941,8.713c-0.957-2.812-1.845-4.735-2.598-5.694c-0.82-0.892-1.982-1.373-3.554-1.442
	V1.028h14.905v0.549c-3.623,0.207-4.31,1.167-4.31,3.637c0,1.098,0.274,2.47,0.82,4.117l9.778,31.631l9.703-26.896l-2.119-6.108
	c-0.889-2.538-1.778-4.185-2.53-5.077c-0.82-0.822-2.187-1.235-4.033-1.303V1.028h14.768v0.549c-3.213,0.138-3.9,1.236-3.9,3.363
	c0,0.755,0.137,1.646,0.479,2.538l10.599,33.278l11.207-31.426c0.547-1.647,0.82-3.019,0.82-4.048c0-2.538-0.687-3.637-4.515-3.706
	V1.028z"/>
<path style="fill:#FFFFFF;" d="M85.586,50.775c-6.631,0-12.099-2.401-16.406-7.204c-4.375-4.803-6.562-10.841-6.562-18.183
	c0-7.342,2.187-13.381,6.562-18.183C73.487,2.401,78.955,0,85.586,0c6.63,0,12.099,2.401,16.474,7.204
	c4.306,4.802,6.494,10.841,6.494,18.183c0,7.342-2.187,13.38-6.494,18.183C97.685,48.374,92.216,50.775,85.586,50.775z
	 M85.586,49.471c5.673,0,10.048-2.059,13.124-6.244c3.008-4.116,4.511-10.086,4.511-17.839c0-15.919-5.947-24.084-17.636-24.084
	S67.95,9.469,67.95,25.387c0,7.753,1.504,13.724,4.58,17.839C75.537,47.412,79.912,49.471,85.586,49.471z"/>
<path style="fill:#FFFFFF;" d="M139.249,50.089l-18.046-44.6l-1.846,35.543c-0.205,3.225,0.274,5.283,1.299,6.245
	c1.025,0.96,2.26,1.509,5.473,1.578v0.549h-12.927v-0.549c3.897-0.206,4.447-1.716,4.789-7.754l1.708-31.837
	c0.205-3.225-0.068-5.216-0.683-6.038c-0.615-0.755-3.004-1.236-5.396-1.304V1.372h10.865l16.406,40.827l16.337-40.827h9.98V1.92
	c-2.392,0.069-3.896,0.549-4.511,1.304c-0.615,0.755-0.888,2.744-0.683,5.9l1.709,32.936c0.273,5.283,0.414,6.588,4.72,6.793v0.549
	h-13.884v-0.549c4.443-0.206,4.584-1.51,4.379-6.793l-1.572-36.983l-17.978,45.011H139.249z"/>
<path style="fill:#FFFFFF;" d="M253.749,1.372h13.678V1.92c-4.922,0.207-5.814,2.196-5.814,7.617v40.551h-0.205L229.691,7.547
	v32.935c0,6.313,1.029,8.166,6.498,8.372v0.549H222.51v-0.549c4.922-0.206,5.814-2.264,5.814-8.372V5.694
	c-1.914-2.47-3.623-3.706-6.699-3.774V1.372h9.638l28.983,38.63V9.537c0-5.557-1.029-7.41-6.497-7.617V1.372z"/>
<path style="fill:#FFFFFF;" d="M390.689,49.196c-1.294-1.303-1.294-3.499,0-4.871c1.294-1.305,3.612-1.305,4.906,0
	c1.294,1.372,1.294,3.567,0,4.871C394.301,50.569,391.983,50.569,390.689,49.196z"/>
<path style="fill:#FFFFFF;" d="M403.598,49.403v-0.687c3.692-0.206,5.199-0.617,6.292-1.235c1.095-0.618,1.641-1.853,1.641-3.843
	V20.584c0-2.814-0.82-3.911-3.007-3.911c-1.162,0-3.008,0.481-5.4,1.441l-0.137-0.548l12.646-5.558v31.632
	c0,1.921,0.547,3.156,1.641,3.773c1.094,0.618,3.486,1.099,7.177,1.305v0.687H403.598z"/>
<path style="fill:#FFFFFF;" d="M451.999,17.634c2.803,3.774,4.239,8.783,4.239,15.027c0,7.754-2.188,14.272-6.495,19.555
	c-4.306,5.215-9.979,7.822-17.02,7.822c-2.529,0-3.832-0.343-5.609-0.961l0.478-1.098c1.572,0.618,2.737,0.96,5.199,0.96
	c11.005,0,18.114-7.891,18.661-25.112c-2.188,4.597-6.494,7.203-11.758,7.203c-8.475,0-14.218-5.283-14.218-13.86
	c0-4.323,1.436-7.891,4.307-10.841c2.87-2.882,6.494-4.324,10.868-4.324C445.368,12.007,449.129,13.859,451.999,17.634z
	 M451.452,32.317v-0.48c0-13.106-3.554-19.007-10.732-19.007c-6.767,0-11.343,5.215-11.343,13.792
	c0,8.165,5.055,13.243,11.411,13.243C445.437,39.865,449.607,36.914,451.452,32.317z"/>
<path style="fill:#FFFFFF;" d="M326.825,42.81c0.892,2.548,1.784,4.132,2.538,4.82c0.755,0.758,1.921,1.171,3.636,1.309v0.551
	h-14.346v-0.551c4.871-0.207,4.604-1.446,2.888-6.474l-3.773-10.812h-19.004l-3.499,9.917c-2.058,5.991-0.954,7.162,3.918,7.368
	v0.551h-13.522v-0.551c4.185-0.482,5.831-1.928,7.684-7.093l14.544-40.562h4.048L326.825,42.81z M299.245,30.277h18.043
	l-8.987-25.894L299.245,30.277z"/>
<path style="fill:#FFFFFF;" d="M212.8,42.81c0.892,2.548,1.784,4.132,2.538,4.82c0.755,0.758,1.921,1.171,3.636,1.309v0.551h-14.346
	v-0.551c4.871-0.207,4.604-1.446,2.889-6.474l-3.773-10.812H184.74l-3.499,9.917c-2.058,5.991-0.954,7.162,3.918,7.368v0.551
	h-13.522v-0.551c4.185-0.482,5.831-1.928,7.684-7.093l14.545-40.562h4.048L212.8,42.81z M185.22,30.277h18.043l-8.987-25.894
	L185.22,30.277z"/>
</svg>
