<?xml version="1.0" encoding="iso-8859-1"?>
<!-- Generator: Adobe Illustrator 22.0.1, SVG Export Plug-In . SVG Version: 6.00 Build 0)  -->
<svg version="1.1" id="Capa_1" xmlns="http://www.w3.org/2000/svg" xmlns:xlink="http://www.w3.org/1999/xlink" x="0px" y="0px"
	 viewBox="0 0 142.266 19.169" style="enable-background:new 0 0 142.266 19.169;" xml:space="preserve">
<path d="M76.92,10.023l-0.001,0.207c-1.697,0.072-1.391,0.41-1.396,2.041l-0.017,5.104c-1.753,1.212-3.714,1.801-5.881,1.793
	c-2.794-0.01-5.062-0.897-6.805-2.691c-1.743-1.793-2.597-4.101-2.587-6.976c0.01-2.928,0.88-5.256,2.635-6.96
	C64.596,0.837,66.949-0.01,69.925,0c1.801,0.006,3.602,0.272,5.402,0.821L75.31,5.929h-0.261c-0.117-3.86-2.175-5.427-5.647-5.438
	c-2.167-0.008-3.893,0.79-5.178,2.392c-1.285,1.601-1.945,3.775-1.954,6.495c-0.009,2.772,0.662,5.002,2.014,6.716
	c1.352,1.714,3.125,2.575,5.292,2.582c1.801,0.005,3.553-0.662,4.209-1.592l0.014-4.17c0.004-1.01-0.229-1.658-0.672-1.997
	c-0.469-0.312-0.865-0.546-2.535-0.708l0.001-0.207L76.92,10.023z"/>
<path d="M79.03,18.701v-0.207c0.862-0.026,1.436-0.206,1.697-0.492c0.235-0.285,0.366-0.881,0.366-1.814V2.822
	c0-1.477-0.392-1.969-2.063-2.047V0.568h6.293c4.569,0,6.423,1.425,6.423,4.352c0,1.425-0.548,2.539-1.671,3.29
	c-1.123,0.751-2.507,1.14-4.151,1.14v0.104c2.272,0,3.838,0.984,4.726,2.952l1.514,3.342c0.809,1.788,1.645,2.616,2.924,2.746v0.207
	h-3.342c-0.313-0.517-0.809-1.502-1.462-2.927l-1.462-3.161c-0.574-1.243-1.123-2.047-1.645-2.435
	c-0.522-0.388-1.358-0.57-2.507-0.57h-1.801v6.579c0,0.932,0.131,1.528,0.392,1.814c0.235,0.286,0.473,0.466,1.334,0.492v0.207
	H79.03z M82.868,9.246h1.619c3.786,0,5.3-1.322,5.3-4.301c0-1.321-0.313-2.305-0.966-3.005c-0.653-0.674-1.88-1.01-3.734-1.01
	h-2.219V9.246z"/>
<path d="M109.358,12.898l-0.673,5.883L95.97,18.739l0.001-0.207c0.862-0.023,1.437-0.202,1.699-0.487
	c0.236-0.283,0.368-0.879,0.372-1.812l0.045-13.366c0.005-1.477-0.385-1.971-2.056-2.054l0.001-0.206l12.323,0.04l0.558,4.877
	h-0.209c-0.489-2.074-1.035-2.781-1.685-3.483c-0.65-0.701-1.798-1.043-3.469-1.048l-3.681-0.012L99.84,9.271l2.611,0.009
	c1.071,0.003,1.855-0.253,2.326-0.769c0.472-0.491,0.812-0.781,1.026-2.153l0.209,0.001l-0.021,6.253l-0.209-0.001
	c-0.204-1.373-0.543-1.665-1.011-2.185s-1.251-0.782-2.321-0.785l-2.611-0.009l-0.03,8.756l3.603,0.012
	c2.089,0.007,3.291-0.274,4.156-1.307c0.839-1.034,1.181-1.634,1.581-4.197L109.358,12.898z"/>
<path d="M126.601,16.188c0.34,0.959,0.679,1.555,0.966,1.814c0.287,0.286,0.731,0.441,1.384,0.492v0.207h-5.46v-0.207
	c1.854-0.077,1.752-0.544,1.099-2.435l-1.436-4.067h-7.232l-1.332,3.73c-0.783,2.254-0.363,2.695,1.491,2.772v0.207h-5.146v-0.207
	c1.592-0.181,2.219-0.725,2.924-2.668l5.535-15.258h1.541L126.601,16.188z M116.105,11.474h6.867l-3.42-9.74L116.105,11.474z"/>
<path d="M142.266,0.076v5.705h-0.209c-0.235-2.513-0.574-3.244-1.41-3.969c-0.836-0.725-1.566-0.829-3.238-0.829h-1.436v15.076
	c0,0.985,0.183,1.632,0.575,1.917c0.365,0.311,0.838,0.492,2.065,0.517v0.207h-7.055v-0.207c1.227-0.026,1.7-0.206,2.091-0.517
	c0.366-0.286,0.548-0.932,0.548-1.917V0.983h-1.436c-1.671,0-2.402,0.104-3.238,0.829c-0.835,0.725-1.175,1.456-1.41,3.969h-0.209
	V0.076h0.131c0.34,0.337,0.966,0.492,1.906,0.492h10.287c0.94,0,1.567-0.155,1.906-0.492H142.266z"/>
<path d="M32.391,1.069c-1.676,0.077-1.7,0.435-1.7,2.149v13.2c0,1.714,0.361,2.072,2.037,2.149v0.204H26.9v-0.204
	c1.676-0.077,2.037-0.435,2.037-2.149v-6.37h-9.592v6.37c0,1.714,0.361,2.072,2.037,2.149v0.204h-5.491v-0.204
	c1.676-0.077,1.7-0.435,1.7-2.149v-13.2c0-1.714-0.024-2.072-1.7-2.149V0.865h5.491v0.204c-1.676,0.077-2.037,0.435-2.037,1.816
	v6.293h9.592V3.219c0-1.714-0.361-2.072-2.037-2.149V0.865h5.491V1.069z"/>
<path d="M47.347,12.961l-0.664,5.812L34.124,18.73l0.001-0.204c0.851-0.023,1.419-0.2,1.678-0.48
	c0.233-0.281,0.364-0.869,0.367-1.79l0.045-13.203c0.005-1.459-0.38-1.945-2.03-2.027l0.001-0.205l12.172,0.041l0.551,4.817h-0.206
	c-0.483-2.049-1.022-2.747-1.665-3.44c-0.642-0.693-1.776-1.029-3.427-1.035l-3.636-0.012l-0.028,8.188l2.579,0.009
	c1.057,0.003,1.832-0.25,2.298-0.76c0.466-0.484,0.802-0.77,1.013-2.125h0.206l-0.021,6.176h-0.207
	c-0.202-1.357-0.536-1.644-0.998-2.158c-0.462-0.513-1.235-0.772-2.293-0.775l-2.579-0.009l-0.029,8.647l3.559,0.012
	c2.063,0.007,3.25-0.271,4.104-1.291c0.829-1.021,1.166-1.614,1.561-4.145H47.347z"/>
<path d="M14.269,0.266v5.668h-0.208c-0.233-2.497-0.571-3.223-1.401-3.944s-1.557-0.823-3.217-0.823H8.016v14.98
	c0,0.979,0.182,1.622,0.571,1.904c0.363,0.309,0.833,0.49,2.052,0.516v0.205h-7.01v-0.205c1.22-0.026,1.689-0.207,2.078-0.516
	c0.363-0.282,0.545-0.926,0.545-1.904V1.168H4.825c-1.66,0-2.387,0.103-3.217,0.823c-0.83,0.721-1.168,1.447-1.401,3.944H0V0.266
	h0.13c0.337,0.335,0.96,0.49,1.894,0.49h10.222c0.934,0,1.557-0.155,1.894-0.49H14.269z"/>
</svg>
